<svg xmlns="http://www.w3.org/2000/svg" width="157.71" height="97.43" viewBox="0 0 157.71 97.43"><defs><style>.cls-1{fill:#dcdcdc;}.cls-2{fill:#fff;}</style></defs><title>Asset 2</title><g id="Layer_2" data-name="Layer 2"><g id="Layer_1-2" data-name="Layer 1"><path class="cls-1" d="M28.67,95.43a26.66,26.66,0,0,1-2.76-53.18A40.64,40.64,0,0,1,99.35,18.66,25.65,25.65,0,0,1,135.67,42c0,.32,0,.64,0,1A26.66,26.66,0,0,1,129,95.43Z"/><path class="cls-2" d="M66.54,4A38.6,38.6,0,0,1,98.7,21.22a23.64,23.64,0,0,1,35,20.75,23.89,23.89,0,0,1-.14,2.54,24.76,24.76,0,0,1,20.18,24.25h0A24.74,24.74,0,0,1,129,93.43H28.67A24.74,24.74,0,0,1,4,68.76H4A24.74,24.74,0,0,1,27.94,44.11c0-.49,0-1,0-1.47A38.64,38.64,0,0,1,66.54,4m0-4A42.69,42.69,0,0,0,24,40.49a28.66,28.66,0,0,0,4.71,56.94H129a28.66,28.66,0,0,0,8.62-56A27.65,27.65,0,0,0,100,16.21,42.57,42.57,0,0,0,66.54,0Z"/></g></g></svg>